<mxfile host="app.diagrams.net" modified="2024-06-02T17:13:57.935Z" agent="Mozilla/5.0 (X11; Ubuntu; Linux x86_64; rv:125.0) Gecko/20100101 Firefox/125.0" etag="7DonlabMr260ho0NLynk" version="24.4.13" type="device">
  <diagram name="Page-1" id="GShBvaMt4-n2fsqKeiEs">
    <mxGraphModel dx="1500" dy="365" grid="1" gridSize="10" guides="1" tooltips="1" connect="1" arrows="1" fold="1" page="1" pageScale="1" pageWidth="850" pageHeight="1100" math="0" shadow="0">
      <root>
        <mxCell id="0" />
        <mxCell id="1" parent="0" />
        <mxCell id="QHThUEgulMYCSTynqxfM-2" value="" style="rounded=0;whiteSpace=wrap;html=1;" parent="1" vertex="1">
          <mxGeometry x="-80" y="650" width="200" height="290" as="geometry" />
        </mxCell>
        <mxCell id="QHThUEgulMYCSTynqxfM-7" value="" style="shape=image;html=1;verticalAlign=top;verticalLabelPosition=bottom;labelBackgroundColor=#ffffff;imageAspect=0;aspect=fixed;image=https://cdn3.iconfinder.com/data/icons/summertime-6/512/camera-128.png" parent="1" vertex="1">
          <mxGeometry x="5" y="894" width="30" height="30" as="geometry" />
        </mxCell>
        <mxCell id="QHThUEgulMYCSTynqxfM-11" value="" style="endArrow=none;dashed=1;html=1;strokeWidth=1;rounded=0;entryX=0.15;entryY=0.999;entryDx=0;entryDy=0;entryPerimeter=0;" parent="1" edge="1">
          <mxGeometry width="50" height="50" relative="1" as="geometry">
            <mxPoint x="-40" y="690" as="sourcePoint" />
            <mxPoint x="-40.5" y="845.56" as="targetPoint" />
          </mxGeometry>
        </mxCell>
        <mxCell id="QHThUEgulMYCSTynqxfM-26" value="T&lt;sub&gt;1&lt;/sub&gt;" style="text;html=1;strokeColor=none;fillColor=none;align=center;verticalAlign=middle;whiteSpace=wrap;rounded=0;" parent="1" vertex="1">
          <mxGeometry x="-36" y="753" width="20" height="10" as="geometry" />
        </mxCell>
        <mxCell id="QHThUEgulMYCSTynqxfM-27" value="T&lt;span style=&quot;font-size: 10px;&quot;&gt;&lt;sub&gt;2&lt;/sub&gt;&lt;/span&gt;" style="text;html=1;strokeColor=none;fillColor=none;align=center;verticalAlign=middle;whiteSpace=wrap;rounded=0;" parent="1" vertex="1">
          <mxGeometry x="24" y="753" width="20" height="10" as="geometry" />
        </mxCell>
        <mxCell id="QHThUEgulMYCSTynqxfM-28" value="T&lt;span style=&quot;font-size: 10px;&quot;&gt;&lt;sub&gt;3&lt;/sub&gt;&lt;/span&gt;" style="text;html=1;strokeColor=none;fillColor=none;align=center;verticalAlign=middle;whiteSpace=wrap;rounded=0;" parent="1" vertex="1">
          <mxGeometry x="84" y="753" width="20" height="10" as="geometry" />
        </mxCell>
        <mxCell id="QHThUEgulMYCSTynqxfM-29" value="A&lt;span style=&quot;font-size: 10px;&quot;&gt;&lt;sub style=&quot;font-size: 10px;&quot;&gt;1&lt;/sub&gt;&lt;/span&gt;" style="text;html=1;strokeColor=none;fillColor=none;align=center;verticalAlign=middle;whiteSpace=wrap;rounded=0;fontSize=10;" parent="1" vertex="1">
          <mxGeometry x="-32" y="870" width="20" height="10" as="geometry" />
        </mxCell>
        <mxCell id="QHThUEgulMYCSTynqxfM-30" value="Camera" style="text;html=1;strokeColor=none;fillColor=none;align=center;verticalAlign=middle;whiteSpace=wrap;rounded=0;fontSize=10;" parent="1" vertex="1">
          <mxGeometry x="10" y="923" width="20" height="10" as="geometry" />
        </mxCell>
        <mxCell id="QHThUEgulMYCSTynqxfM-33" value="" style="sketch=0;pointerEvents=1;shadow=0;dashed=0;html=1;strokeColor=none;fillColor=#505050;labelPosition=center;verticalLabelPosition=bottom;verticalAlign=top;outlineConnect=0;align=center;shape=mxgraph.office.devices.modem;fontSize=10;" parent="1" vertex="1">
          <mxGeometry x="-50" y="855" width="20" height="14" as="geometry" />
        </mxCell>
        <mxCell id="QHThUEgulMYCSTynqxfM-34" value="A&lt;sub&gt;2&lt;/sub&gt;" style="text;html=1;strokeColor=none;fillColor=none;align=center;verticalAlign=middle;whiteSpace=wrap;rounded=0;fontSize=10;" parent="1" vertex="1">
          <mxGeometry x="88" y="869" width="20" height="10" as="geometry" />
        </mxCell>
        <mxCell id="QHThUEgulMYCSTynqxfM-35" value="" style="sketch=0;pointerEvents=1;shadow=0;dashed=0;html=1;strokeColor=none;fillColor=#505050;labelPosition=center;verticalLabelPosition=bottom;verticalAlign=top;outlineConnect=0;align=center;shape=mxgraph.office.devices.modem;fontSize=10;" parent="1" vertex="1">
          <mxGeometry x="70" y="855" width="20" height="14" as="geometry" />
        </mxCell>
        <mxCell id="QHThUEgulMYCSTynqxfM-36" value="" style="endArrow=classic;startArrow=classic;html=1;strokeWidth=0.5;startSize=3;endSize=3;rounded=0;" parent="1" edge="1">
          <mxGeometry width="50" height="50" relative="1" as="geometry">
            <mxPoint x="19.799999999999997" y="869" as="sourcePoint" />
            <mxPoint x="20" y="900" as="targetPoint" />
          </mxGeometry>
        </mxCell>
        <mxCell id="QHThUEgulMYCSTynqxfM-37" value="2.08m" style="edgeLabel;html=1;align=center;verticalAlign=middle;resizable=0;points=[];fontSize=10;" parent="QHThUEgulMYCSTynqxfM-36" vertex="1" connectable="0">
          <mxGeometry x="-0.1242" y="-1" relative="1" as="geometry">
            <mxPoint x="1" y="2" as="offset" />
          </mxGeometry>
        </mxCell>
        <mxCell id="QHThUEgulMYCSTynqxfM-43" value="" style="shape=image;html=1;verticalAlign=top;verticalLabelPosition=bottom;labelBackgroundColor=#ffffff;imageAspect=0;aspect=fixed;image=https://cdn1.iconfinder.com/data/icons/ionicons-fill-vol-2/512/wifi-128.png;fontSize=10;" parent="1" vertex="1">
          <mxGeometry x="-44" y="850" width="8" height="8" as="geometry" />
        </mxCell>
        <mxCell id="QHThUEgulMYCSTynqxfM-45" value="" style="shape=image;html=1;verticalAlign=top;verticalLabelPosition=bottom;labelBackgroundColor=#ffffff;imageAspect=0;aspect=fixed;image=https://cdn1.iconfinder.com/data/icons/ionicons-fill-vol-2/512/wifi-128.png;fontSize=10;" parent="1" vertex="1">
          <mxGeometry x="76" y="850" width="8" height="8" as="geometry" />
        </mxCell>
        <mxCell id="QHThUEgulMYCSTynqxfM-5" value="" style="shape=umlActor;verticalLabelPosition=bottom;verticalAlign=top;html=1;outlineConnect=0;" parent="1" vertex="1">
          <mxGeometry x="-50" y="726" width="20" height="40" as="geometry" />
        </mxCell>
        <mxCell id="QHThUEgulMYCSTynqxfM-62" value="" style="endArrow=classic;startArrow=classic;html=1;rounded=0;strokeWidth=0.5;endSize=3;startSize=3;" parent="1" edge="1">
          <mxGeometry width="50" height="50" relative="1" as="geometry">
            <mxPoint x="-80" y="784" as="sourcePoint" />
            <mxPoint x="-40" y="784" as="targetPoint" />
          </mxGeometry>
        </mxCell>
        <mxCell id="QHThUEgulMYCSTynqxfM-63" value="&lt;font style=&quot;font-size: 7px;&quot;&gt;0.627 m&lt;/font&gt;" style="edgeLabel;html=1;align=center;verticalAlign=middle;resizable=0;points=[];" parent="QHThUEgulMYCSTynqxfM-62" vertex="1" connectable="0">
          <mxGeometry x="-0.247" y="-1" relative="1" as="geometry">
            <mxPoint x="5" y="-1" as="offset" />
          </mxGeometry>
        </mxCell>
        <mxCell id="QHThUEgulMYCSTynqxfM-64" value="" style="endArrow=classic;startArrow=classic;html=1;rounded=0;strokeWidth=0.5;endSize=3;startSize=3;" parent="1" edge="1">
          <mxGeometry width="50" height="50" relative="1" as="geometry">
            <mxPoint x="80" y="821.11" as="sourcePoint" />
            <mxPoint x="120" y="821" as="targetPoint" />
          </mxGeometry>
        </mxCell>
        <mxCell id="QHThUEgulMYCSTynqxfM-65" value="&lt;font style=&quot;font-size: 8px;&quot;&gt;1.04 m&lt;/font&gt;" style="edgeLabel;html=1;align=center;verticalAlign=middle;resizable=0;points=[];fontSize=8;" parent="QHThUEgulMYCSTynqxfM-64" vertex="1" connectable="0">
          <mxGeometry x="-0.247" y="-1" relative="1" as="geometry">
            <mxPoint x="5" y="-1" as="offset" />
          </mxGeometry>
        </mxCell>
        <mxCell id="QHThUEgulMYCSTynqxfM-67" value="" style="endArrow=none;startArrow=classic;html=1;strokeWidth=0.5;startSize=3;endSize=3;rounded=0;endFill=0;" parent="1" edge="1">
          <mxGeometry width="50" height="50" relative="1" as="geometry">
            <mxPoint x="-55" y="738" as="sourcePoint" />
            <mxPoint x="-55" y="758" as="targetPoint" />
          </mxGeometry>
        </mxCell>
        <mxCell id="QHThUEgulMYCSTynqxfM-69" value="" style="endArrow=classic;startArrow=none;html=1;strokeWidth=0.5;startSize=3;endSize=3;rounded=0;endFill=1;startFill=0;" parent="1" edge="1">
          <mxGeometry width="50" height="50" relative="1" as="geometry">
            <mxPoint x="-60" y="738" as="sourcePoint" />
            <mxPoint x="-60" y="758" as="targetPoint" />
          </mxGeometry>
        </mxCell>
        <mxCell id="QHThUEgulMYCSTynqxfM-70" value="" style="endArrow=none;startArrow=classic;html=1;strokeWidth=0.5;startSize=3;endSize=3;rounded=0;endFill=0;" parent="1" edge="1">
          <mxGeometry width="50" height="50" relative="1" as="geometry">
            <mxPoint x="6" y="739" as="sourcePoint" />
            <mxPoint x="6" y="759" as="targetPoint" />
          </mxGeometry>
        </mxCell>
        <mxCell id="QHThUEgulMYCSTynqxfM-71" value="" style="endArrow=classic;startArrow=none;html=1;strokeWidth=0.5;startSize=3;endSize=3;rounded=0;endFill=1;startFill=0;" parent="1" edge="1">
          <mxGeometry width="50" height="50" relative="1" as="geometry">
            <mxPoint x="1" y="739" as="sourcePoint" />
            <mxPoint x="1" y="759" as="targetPoint" />
          </mxGeometry>
        </mxCell>
        <mxCell id="QHThUEgulMYCSTynqxfM-72" value="" style="endArrow=none;startArrow=classic;html=1;strokeWidth=0.5;startSize=3;endSize=3;rounded=0;endFill=0;" parent="1" edge="1">
          <mxGeometry width="50" height="50" relative="1" as="geometry">
            <mxPoint x="65" y="738" as="sourcePoint" />
            <mxPoint x="65" y="758" as="targetPoint" />
          </mxGeometry>
        </mxCell>
        <mxCell id="QHThUEgulMYCSTynqxfM-73" value="" style="endArrow=classic;startArrow=none;html=1;strokeWidth=0.5;startSize=3;endSize=3;rounded=0;endFill=1;startFill=0;" parent="1" edge="1">
          <mxGeometry width="50" height="50" relative="1" as="geometry">
            <mxPoint x="60" y="738" as="sourcePoint" />
            <mxPoint x="60" y="758" as="targetPoint" />
          </mxGeometry>
        </mxCell>
        <mxCell id="_zlzXDLENZHTqgReKsr3-1" value="" style="endArrow=none;dashed=1;html=1;strokeWidth=1;rounded=0;entryX=0.14;entryY=1;entryDx=0;entryDy=0;entryPerimeter=0;" parent="1" edge="1">
          <mxGeometry width="50" height="50" relative="1" as="geometry">
            <mxPoint x="80" y="690" as="sourcePoint" />
            <mxPoint x="80.09000000000005" y="846" as="targetPoint" />
          </mxGeometry>
        </mxCell>
        <mxCell id="_zlzXDLENZHTqgReKsr3-2" value="" style="endArrow=none;dashed=1;html=1;strokeWidth=1;rounded=0;entryX=0.14;entryY=1;entryDx=0;entryDy=0;entryPerimeter=0;" parent="1" edge="1">
          <mxGeometry width="50" height="50" relative="1" as="geometry">
            <mxPoint x="20" y="690" as="sourcePoint" />
            <mxPoint x="20.090000000000032" y="846" as="targetPoint" />
          </mxGeometry>
        </mxCell>
        <mxCell id="_zlzXDLENZHTqgReKsr3-3" value="" style="endArrow=none;dashed=1;html=1;strokeWidth=1;rounded=0;" parent="1" edge="1">
          <mxGeometry width="50" height="50" relative="1" as="geometry">
            <mxPoint x="-23" y="864" as="sourcePoint" />
            <mxPoint x="66" y="863" as="targetPoint" />
          </mxGeometry>
        </mxCell>
        <mxCell id="_zlzXDLENZHTqgReKsr3-4" value="Anchor baseline" style="edgeLabel;html=1;align=center;verticalAlign=middle;resizable=0;points=[];fontSize=8;" parent="_zlzXDLENZHTqgReKsr3-3" vertex="1" connectable="0">
          <mxGeometry x="0.198" relative="1" as="geometry">
            <mxPoint x="-10" y="-1" as="offset" />
          </mxGeometry>
        </mxCell>
        <mxCell id="_zlzXDLENZHTqgReKsr3-5" value="" style="shape=umlActor;verticalLabelPosition=bottom;verticalAlign=top;html=1;outlineConnect=0;" parent="1" vertex="1">
          <mxGeometry x="10" y="726" width="20" height="40" as="geometry" />
        </mxCell>
        <mxCell id="_zlzXDLENZHTqgReKsr3-6" value="" style="shape=umlActor;verticalLabelPosition=bottom;verticalAlign=top;html=1;outlineConnect=0;" parent="1" vertex="1">
          <mxGeometry x="70" y="726" width="20" height="40" as="geometry" />
        </mxCell>
        <mxCell id="_zlzXDLENZHTqgReKsr3-9" value="" style="endArrow=classic;startArrow=classic;html=1;strokeWidth=0.5;startSize=3;endSize=3;rounded=0;" parent="1" edge="1">
          <mxGeometry width="50" height="50" relative="1" as="geometry">
            <mxPoint x="110" y="690" as="sourcePoint" />
            <mxPoint x="109.6" y="850" as="targetPoint" />
          </mxGeometry>
        </mxCell>
        <mxCell id="_zlzXDLENZHTqgReKsr3-10" value="15 m" style="edgeLabel;html=1;align=center;verticalAlign=middle;resizable=0;points=[];fontSize=10;" parent="_zlzXDLENZHTqgReKsr3-9" vertex="1" connectable="0">
          <mxGeometry x="-0.1242" y="-1" relative="1" as="geometry">
            <mxPoint x="-5" y="-28" as="offset" />
          </mxGeometry>
        </mxCell>
        <mxCell id="_zlzXDLENZHTqgReKsr3-11" value="" style="endArrow=classic;startArrow=classic;html=1;rounded=0;strokeWidth=0.5;endSize=3;startSize=3;" parent="1" edge="1">
          <mxGeometry width="50" height="50" relative="1" as="geometry">
            <mxPoint x="-40" y="800" as="sourcePoint" />
            <mxPoint x="20" y="800" as="targetPoint" />
          </mxGeometry>
        </mxCell>
        <mxCell id="_zlzXDLENZHTqgReKsr3-12" value="1.25 m" style="edgeLabel;html=1;align=center;verticalAlign=middle;resizable=0;points=[];fontSize=10;" parent="_zlzXDLENZHTqgReKsr3-11" vertex="1" connectable="0">
          <mxGeometry x="-0.247" y="-1" relative="1" as="geometry">
            <mxPoint x="9" as="offset" />
          </mxGeometry>
        </mxCell>
        <mxCell id="_zlzXDLENZHTqgReKsr3-13" value="" style="endArrow=classic;startArrow=classic;html=1;rounded=0;strokeWidth=0.5;endSize=3;startSize=3;" parent="1" edge="1">
          <mxGeometry width="50" height="50" relative="1" as="geometry">
            <mxPoint x="20" y="800" as="sourcePoint" />
            <mxPoint x="80" y="800" as="targetPoint" />
          </mxGeometry>
        </mxCell>
        <mxCell id="_zlzXDLENZHTqgReKsr3-14" value="1.25 m" style="edgeLabel;html=1;align=center;verticalAlign=middle;resizable=0;points=[];fontSize=10;" parent="_zlzXDLENZHTqgReKsr3-13" vertex="1" connectable="0">
          <mxGeometry x="-0.247" y="-1" relative="1" as="geometry">
            <mxPoint x="9" as="offset" />
          </mxGeometry>
        </mxCell>
        <mxCell id="9L4NvWvLwso0qVYl99Ml-1" value="A&lt;span style=&quot;font-size: 10px;&quot;&gt;&lt;sub style=&quot;font-size: 10px;&quot;&gt;1&lt;/sub&gt;&lt;/span&gt;" style="text;html=1;strokeColor=none;fillColor=none;align=center;verticalAlign=middle;whiteSpace=wrap;rounded=0;fontSize=10;" vertex="1" parent="1">
          <mxGeometry x="-32" y="675" width="20" height="10" as="geometry" />
        </mxCell>
        <mxCell id="9L4NvWvLwso0qVYl99Ml-2" value="" style="sketch=0;pointerEvents=1;shadow=0;dashed=0;html=1;strokeColor=none;fillColor=#505050;labelPosition=center;verticalLabelPosition=bottom;verticalAlign=top;outlineConnect=0;align=center;shape=mxgraph.office.devices.modem;fontSize=10;" vertex="1" parent="1">
          <mxGeometry x="-50" y="660" width="20" height="14" as="geometry" />
        </mxCell>
        <mxCell id="9L4NvWvLwso0qVYl99Ml-3" value="A&lt;sub&gt;2&lt;/sub&gt;" style="text;html=1;strokeColor=none;fillColor=none;align=center;verticalAlign=middle;whiteSpace=wrap;rounded=0;fontSize=10;" vertex="1" parent="1">
          <mxGeometry x="88" y="674" width="20" height="10" as="geometry" />
        </mxCell>
        <mxCell id="9L4NvWvLwso0qVYl99Ml-4" value="" style="sketch=0;pointerEvents=1;shadow=0;dashed=0;html=1;strokeColor=none;fillColor=#505050;labelPosition=center;verticalLabelPosition=bottom;verticalAlign=top;outlineConnect=0;align=center;shape=mxgraph.office.devices.modem;fontSize=10;" vertex="1" parent="1">
          <mxGeometry x="70" y="660" width="20" height="14" as="geometry" />
        </mxCell>
        <mxCell id="9L4NvWvLwso0qVYl99Ml-5" value="" style="shape=image;html=1;verticalAlign=top;verticalLabelPosition=bottom;labelBackgroundColor=#ffffff;imageAspect=0;aspect=fixed;image=https://cdn1.iconfinder.com/data/icons/ionicons-fill-vol-2/512/wifi-128.png;fontSize=10;flipH=1;flipV=1;" vertex="1" parent="1">
          <mxGeometry x="-44" y="675" width="8" height="8" as="geometry" />
        </mxCell>
        <mxCell id="9L4NvWvLwso0qVYl99Ml-6" value="" style="shape=image;html=1;verticalAlign=top;verticalLabelPosition=bottom;labelBackgroundColor=#ffffff;imageAspect=0;aspect=fixed;image=https://cdn1.iconfinder.com/data/icons/ionicons-fill-vol-2/512/wifi-128.png;fontSize=10;flipV=1;" vertex="1" parent="1">
          <mxGeometry x="76" y="674" width="8" height="8" as="geometry" />
        </mxCell>
      </root>
    </mxGraphModel>
  </diagram>
</mxfile>
